<mxfile host="Electron" agent="Mozilla/5.0 (Windows NT 10.0; Win64; x64) AppleWebKit/537.36 (KHTML, like Gecko) draw.io/27.0.2 Chrome/134.0.6998.205 Electron/35.3.0 Safari/537.36" version="27.0.2">
  <diagram name="Page-1" id="VIiit87fNT0lKtIAnZU5">
    <mxGraphModel dx="1892" dy="1726" grid="1" gridSize="10" guides="1" tooltips="1" connect="1" arrows="1" fold="1" page="1" pageScale="1" pageWidth="850" pageHeight="1100" math="0" shadow="0">
      <root>
        <mxCell id="0" />
        <mxCell id="1" parent="0" />
        <mxCell id="xl4P_bNNeczQ4wRVMk1U-1" value="" style="rounded=0;whiteSpace=wrap;html=1;" vertex="1" parent="1">
          <mxGeometry x="40" y="30" width="120" height="60" as="geometry" />
        </mxCell>
        <mxCell id="xl4P_bNNeczQ4wRVMk1U-2" value="User(Sender)" style="text;html=1;align=center;verticalAlign=middle;whiteSpace=wrap;rounded=0;" vertex="1" parent="1">
          <mxGeometry x="60" y="45" width="80" height="30" as="geometry" />
        </mxCell>
        <mxCell id="xl4P_bNNeczQ4wRVMk1U-3" value="" style="rounded=0;whiteSpace=wrap;html=1;" vertex="1" parent="1">
          <mxGeometry x="640" y="30" width="120" height="60" as="geometry" />
        </mxCell>
        <mxCell id="xl4P_bNNeczQ4wRVMk1U-4" value="System" style="text;html=1;align=center;verticalAlign=middle;whiteSpace=wrap;rounded=0;" vertex="1" parent="1">
          <mxGeometry x="670" y="45" width="60" height="30" as="geometry" />
        </mxCell>
        <mxCell id="xl4P_bNNeczQ4wRVMk1U-5" value="" style="rounded=0;whiteSpace=wrap;html=1;" vertex="1" parent="1">
          <mxGeometry x="40" y="440" width="120" height="60" as="geometry" />
        </mxCell>
        <mxCell id="xl4P_bNNeczQ4wRVMk1U-6" value="User(Receiver)" style="text;html=1;align=center;verticalAlign=middle;whiteSpace=wrap;rounded=0;" vertex="1" parent="1">
          <mxGeometry x="55" y="455" width="90" height="30" as="geometry" />
        </mxCell>
        <mxCell id="xl4P_bNNeczQ4wRVMk1U-8" value="" style="endArrow=none;html=1;rounded=0;exitX=1;exitY=0.5;exitDx=0;exitDy=0;entryX=0;entryY=0.5;entryDx=0;entryDy=0;" edge="1" parent="1" source="xl4P_bNNeczQ4wRVMk1U-1" target="xl4P_bNNeczQ4wRVMk1U-3">
          <mxGeometry width="50" height="50" relative="1" as="geometry">
            <mxPoint x="210" y="80" as="sourcePoint" />
            <mxPoint x="260" y="30" as="targetPoint" />
          </mxGeometry>
        </mxCell>
        <mxCell id="xl4P_bNNeczQ4wRVMk1U-9" value="" style="endArrow=classic;html=1;rounded=0;" edge="1" parent="1">
          <mxGeometry width="50" height="50" relative="1" as="geometry">
            <mxPoint x="360" y="50" as="sourcePoint" />
            <mxPoint x="420" y="50" as="targetPoint" />
          </mxGeometry>
        </mxCell>
        <mxCell id="xl4P_bNNeczQ4wRVMk1U-10" value="&lt;span style=&quot;text-wrap-mode: nowrap;&quot;&gt;1.1.1: send message (receiver ID, message contant )&lt;/span&gt;" style="text;html=1;align=center;verticalAlign=middle;whiteSpace=wrap;rounded=0;" vertex="1" parent="1">
          <mxGeometry x="260" y="15" width="270" height="30" as="geometry" />
        </mxCell>
        <mxCell id="xl4P_bNNeczQ4wRVMk1U-13" value="" style="endArrow=none;html=1;rounded=0;entryX=0;entryY=0.75;entryDx=0;entryDy=0;edgeStyle=orthogonalEdgeStyle;curved=1;exitX=0.25;exitY=1;exitDx=0;exitDy=0;" edge="1" parent="1" source="xl4P_bNNeczQ4wRVMk1U-3" target="xl4P_bNNeczQ4wRVMk1U-3">
          <mxGeometry width="50" height="50" relative="1" as="geometry">
            <mxPoint x="610" y="190" as="sourcePoint" />
            <mxPoint x="600" y="100" as="targetPoint" />
            <Array as="points">
              <mxPoint x="670" y="130" />
              <mxPoint x="620" y="130" />
              <mxPoint x="620" y="75" />
            </Array>
          </mxGeometry>
        </mxCell>
        <mxCell id="xl4P_bNNeczQ4wRVMk1U-14" value="" style="endArrow=classic;html=1;rounded=0;" edge="1" parent="1">
          <mxGeometry width="50" height="50" relative="1" as="geometry">
            <mxPoint x="610" y="130" as="sourcePoint" />
            <mxPoint x="640" y="140" as="targetPoint" />
          </mxGeometry>
        </mxCell>
        <mxCell id="xl4P_bNNeczQ4wRVMk1U-15" value="&lt;span style=&quot;text-wrap-mode: nowrap;&quot;&gt;1.1.2: validate sender and&amp;nbsp;&lt;/span&gt;&lt;div style=&quot;text-wrap-mode: nowrap;&quot;&gt;receiver exits&amp;nbsp;&lt;/div&gt;" style="text;html=1;align=center;verticalAlign=middle;whiteSpace=wrap;rounded=0;" vertex="1" parent="1">
          <mxGeometry x="570" y="140" width="130" height="30" as="geometry" />
        </mxCell>
        <mxCell id="xl4P_bNNeczQ4wRVMk1U-17" value="" style="endArrow=none;html=1;rounded=0;exitX=0.5;exitY=1;exitDx=0;exitDy=0;edgeStyle=orthogonalEdgeStyle;curved=1;entryX=1;entryY=1;entryDx=0;entryDy=0;" edge="1" parent="1" source="xl4P_bNNeczQ4wRVMk1U-3" target="xl4P_bNNeczQ4wRVMk1U-3">
          <mxGeometry width="50" height="50" relative="1" as="geometry">
            <mxPoint x="730" y="200" as="sourcePoint" />
            <mxPoint x="780" y="150" as="targetPoint" />
            <Array as="points">
              <mxPoint x="700" y="140" />
              <mxPoint x="760" y="140" />
            </Array>
          </mxGeometry>
        </mxCell>
        <mxCell id="xl4P_bNNeczQ4wRVMk1U-18" value="" style="endArrow=classic;html=1;rounded=0;" edge="1" parent="1">
          <mxGeometry width="50" height="50" relative="1" as="geometry">
            <mxPoint x="710" y="154.5" as="sourcePoint" />
            <mxPoint x="750" y="154.5" as="targetPoint" />
          </mxGeometry>
        </mxCell>
        <mxCell id="xl4P_bNNeczQ4wRVMk1U-19" value="&lt;span style=&quot;text-wrap-mode: nowrap;&quot;&gt;1.1.3: save message&amp;nbsp;&lt;/span&gt;&lt;div style=&quot;text-wrap-mode: nowrap;&quot;&gt;to database&lt;/div&gt;" style="text;html=1;align=center;verticalAlign=middle;whiteSpace=wrap;rounded=0;" vertex="1" parent="1">
          <mxGeometry x="690" y="160" width="90" height="30" as="geometry" />
        </mxCell>
        <mxCell id="xl4P_bNNeczQ4wRVMk1U-20" value="" style="endArrow=none;html=1;rounded=0;entryX=0;entryY=0.75;entryDx=0;entryDy=0;exitX=1;exitY=0;exitDx=0;exitDy=0;" edge="1" parent="1" source="xl4P_bNNeczQ4wRVMk1U-5" target="xl4P_bNNeczQ4wRVMk1U-3">
          <mxGeometry width="50" height="50" relative="1" as="geometry">
            <mxPoint x="500" y="160" as="sourcePoint" />
            <mxPoint x="550" y="110" as="targetPoint" />
          </mxGeometry>
        </mxCell>
        <mxCell id="xl4P_bNNeczQ4wRVMk1U-21" value="" style="endArrow=classic;html=1;rounded=0;" edge="1" parent="1">
          <mxGeometry width="50" height="50" relative="1" as="geometry">
            <mxPoint x="370" y="250" as="sourcePoint" />
            <mxPoint x="310" y="300" as="targetPoint" />
          </mxGeometry>
        </mxCell>
        <mxCell id="xl4P_bNNeczQ4wRVMk1U-22" value="&lt;span style=&quot;text-wrap-mode: nowrap;&quot;&gt;1.1.4: notify receiver of new message&lt;/span&gt;" style="text;html=1;align=center;verticalAlign=middle;whiteSpace=wrap;rounded=0;" vertex="1" parent="1">
          <mxGeometry x="150" y="240" width="180" height="40" as="geometry" />
        </mxCell>
        <mxCell id="xl4P_bNNeczQ4wRVMk1U-23" value="" style="endArrow=none;html=1;rounded=0;edgeStyle=orthogonalEdgeStyle;curved=1;entryX=0;entryY=0;entryDx=0;entryDy=0;exitX=1;exitY=0;exitDx=0;exitDy=0;" edge="1" parent="1" source="xl4P_bNNeczQ4wRVMk1U-1" target="xl4P_bNNeczQ4wRVMk1U-3">
          <mxGeometry width="50" height="50" relative="1" as="geometry">
            <mxPoint x="340" y="-10" as="sourcePoint" />
            <mxPoint x="390" y="-60" as="targetPoint" />
            <Array as="points">
              <mxPoint x="160" y="-10" />
              <mxPoint x="640" y="-10" />
            </Array>
          </mxGeometry>
        </mxCell>
        <mxCell id="xl4P_bNNeczQ4wRVMk1U-24" value="" style="endArrow=classic;html=1;rounded=0;" edge="1" parent="1">
          <mxGeometry width="50" height="50" relative="1" as="geometry">
            <mxPoint x="420" y="-25" as="sourcePoint" />
            <mxPoint x="360" y="-25" as="targetPoint" />
          </mxGeometry>
        </mxCell>
        <mxCell id="xl4P_bNNeczQ4wRVMk1U-25" value="&lt;span style=&quot;text-wrap-mode: nowrap;&quot;&gt;1.1.5: confirmation of message sent&lt;/span&gt;" style="text;html=1;align=center;verticalAlign=middle;whiteSpace=wrap;rounded=0;" vertex="1" parent="1">
          <mxGeometry x="300" y="-60" width="190" height="30" as="geometry" />
        </mxCell>
        <mxCell id="xl4P_bNNeczQ4wRVMk1U-26" value="" style="rounded=0;whiteSpace=wrap;html=1;" vertex="1" parent="1">
          <mxGeometry x="-220" y="30" width="120" height="60" as="geometry" />
        </mxCell>
        <mxCell id="xl4P_bNNeczQ4wRVMk1U-27" value="Search" style="text;html=1;align=center;verticalAlign=middle;whiteSpace=wrap;rounded=0;" vertex="1" parent="1">
          <mxGeometry x="-190" y="45" width="60" height="30" as="geometry" />
        </mxCell>
        <mxCell id="xl4P_bNNeczQ4wRVMk1U-28" value="" style="rounded=0;whiteSpace=wrap;html=1;" vertex="1" parent="1">
          <mxGeometry x="40" y="-150" width="120" height="60" as="geometry" />
        </mxCell>
        <mxCell id="xl4P_bNNeczQ4wRVMk1U-29" value="Conuty" style="text;html=1;align=center;verticalAlign=middle;whiteSpace=wrap;rounded=0;" vertex="1" parent="1">
          <mxGeometry x="70" y="-135" width="60" height="30" as="geometry" />
        </mxCell>
        <mxCell id="xl4P_bNNeczQ4wRVMk1U-30" value="" style="rounded=0;whiteSpace=wrap;html=1;" vertex="1" parent="1">
          <mxGeometry x="-220" y="-150" width="120" height="60" as="geometry" />
        </mxCell>
        <mxCell id="xl4P_bNNeczQ4wRVMk1U-31" value="Category" style="text;html=1;align=center;verticalAlign=middle;whiteSpace=wrap;rounded=0;" vertex="1" parent="1">
          <mxGeometry x="-190" y="-135" width="60" height="30" as="geometry" />
        </mxCell>
        <mxCell id="xl4P_bNNeczQ4wRVMk1U-32" value="" style="rounded=0;whiteSpace=wrap;html=1;" vertex="1" parent="1">
          <mxGeometry x="-220" y="-270" width="120" height="60" as="geometry" />
        </mxCell>
        <mxCell id="xl4P_bNNeczQ4wRVMk1U-33" value="Product" style="text;html=1;align=center;verticalAlign=middle;whiteSpace=wrap;rounded=0;" vertex="1" parent="1">
          <mxGeometry x="-190" y="-255" width="60" height="30" as="geometry" />
        </mxCell>
        <mxCell id="xl4P_bNNeczQ4wRVMk1U-34" value="" style="endArrow=none;html=1;rounded=0;entryX=0;entryY=0.5;entryDx=0;entryDy=0;exitX=1;exitY=0.5;exitDx=0;exitDy=0;" edge="1" parent="1" source="xl4P_bNNeczQ4wRVMk1U-26" target="xl4P_bNNeczQ4wRVMk1U-1">
          <mxGeometry width="50" height="50" relative="1" as="geometry">
            <mxPoint x="-60" y="150" as="sourcePoint" />
            <mxPoint x="-10" y="100" as="targetPoint" />
          </mxGeometry>
        </mxCell>
        <mxCell id="xl4P_bNNeczQ4wRVMk1U-35" value="" style="endArrow=classic;html=1;rounded=0;" edge="1" parent="1">
          <mxGeometry width="50" height="50" relative="1" as="geometry">
            <mxPoint y="50" as="sourcePoint" />
            <mxPoint x="-70" y="50" as="targetPoint" />
          </mxGeometry>
        </mxCell>
        <mxCell id="xl4P_bNNeczQ4wRVMk1U-36" value="&lt;span style=&quot;font-size: 11px; text-wrap-mode: nowrap; background-color: rgb(255, 255, 255);&quot;&gt;2.1.1: search product&lt;/span&gt;" style="text;html=1;align=center;verticalAlign=middle;whiteSpace=wrap;rounded=0;" vertex="1" parent="1">
          <mxGeometry x="-70" y="15" width="60" height="30" as="geometry" />
        </mxCell>
        <mxCell id="xl4P_bNNeczQ4wRVMk1U-37" value="" style="endArrow=classic;html=1;rounded=0;" edge="1" parent="1">
          <mxGeometry width="50" height="50" relative="1" as="geometry">
            <mxPoint x="-70" y="-10" as="sourcePoint" />
            <mxPoint x="-30" y="-50" as="targetPoint" />
          </mxGeometry>
        </mxCell>
        <mxCell id="xl4P_bNNeczQ4wRVMk1U-38" value="" style="endArrow=none;html=1;rounded=0;exitX=1;exitY=0;exitDx=0;exitDy=0;entryX=0;entryY=1;entryDx=0;entryDy=0;" edge="1" parent="1" source="xl4P_bNNeczQ4wRVMk1U-26" target="xl4P_bNNeczQ4wRVMk1U-28">
          <mxGeometry width="50" height="50" relative="1" as="geometry">
            <mxPoint x="-80" as="sourcePoint" />
            <mxPoint x="-30" y="-50" as="targetPoint" />
          </mxGeometry>
        </mxCell>
        <mxCell id="xl4P_bNNeczQ4wRVMk1U-39" value="&lt;span style=&quot;text-wrap-mode: nowrap;&quot;&gt;2.1.2: filter by conutry&lt;/span&gt;" style="text;html=1;align=center;verticalAlign=middle;whiteSpace=wrap;rounded=0;" vertex="1" parent="1">
          <mxGeometry x="-145" y="-60" width="90" height="30" as="geometry" />
        </mxCell>
        <mxCell id="xl4P_bNNeczQ4wRVMk1U-40" value="" style="endArrow=none;html=1;rounded=0;entryX=0;entryY=0.5;entryDx=0;entryDy=0;exitX=1;exitY=0.5;exitDx=0;exitDy=0;" edge="1" parent="1" source="xl4P_bNNeczQ4wRVMk1U-30" target="xl4P_bNNeczQ4wRVMk1U-28">
          <mxGeometry width="50" height="50" relative="1" as="geometry">
            <mxPoint x="-60" y="-100" as="sourcePoint" />
            <mxPoint x="-10" y="-150" as="targetPoint" />
          </mxGeometry>
        </mxCell>
        <mxCell id="xl4P_bNNeczQ4wRVMk1U-41" value="" style="endArrow=classic;html=1;rounded=0;" edge="1" parent="1">
          <mxGeometry width="50" height="50" relative="1" as="geometry">
            <mxPoint x="-10" y="-130" as="sourcePoint" />
            <mxPoint x="-50" y="-130" as="targetPoint" />
          </mxGeometry>
        </mxCell>
        <mxCell id="xl4P_bNNeczQ4wRVMk1U-42" value="&lt;span style=&quot;text-wrap-mode: nowrap;&quot;&gt;2.1.3: filter by category&lt;/span&gt;" style="text;html=1;align=center;verticalAlign=middle;whiteSpace=wrap;rounded=0;" vertex="1" parent="1">
          <mxGeometry x="-70" y="-160" width="70" height="30" as="geometry" />
        </mxCell>
        <mxCell id="xl4P_bNNeczQ4wRVMk1U-43" value="" style="endArrow=none;html=1;rounded=0;exitX=0.5;exitY=0;exitDx=0;exitDy=0;entryX=0.5;entryY=1;entryDx=0;entryDy=0;" edge="1" parent="1" source="xl4P_bNNeczQ4wRVMk1U-30" target="xl4P_bNNeczQ4wRVMk1U-32">
          <mxGeometry width="50" height="50" relative="1" as="geometry">
            <mxPoint x="-190" y="-160" as="sourcePoint" />
            <mxPoint x="-140" y="-210" as="targetPoint" />
          </mxGeometry>
        </mxCell>
        <mxCell id="xl4P_bNNeczQ4wRVMk1U-44" value="" style="endArrow=classic;html=1;rounded=0;" edge="1" parent="1">
          <mxGeometry width="50" height="50" relative="1" as="geometry">
            <mxPoint x="-150" y="-160" as="sourcePoint" />
            <mxPoint x="-150" y="-200" as="targetPoint" />
          </mxGeometry>
        </mxCell>
        <mxCell id="xl4P_bNNeczQ4wRVMk1U-45" value="&lt;span style=&quot;text-wrap-mode: nowrap;&quot;&gt;2.1.4: filter by product&lt;/span&gt;" style="text;html=1;align=center;verticalAlign=middle;whiteSpace=wrap;rounded=0;" vertex="1" parent="1">
          <mxGeometry x="-120" y="-190" width="60" height="30" as="geometry" />
        </mxCell>
        <mxCell id="xl4P_bNNeczQ4wRVMk1U-46" value="" style="endArrow=none;html=1;rounded=0;edgeStyle=orthogonalEdgeStyle;curved=1;exitX=1;exitY=0.5;exitDx=0;exitDy=0;entryX=0.5;entryY=0;entryDx=0;entryDy=0;" edge="1" parent="1" source="xl4P_bNNeczQ4wRVMk1U-32" target="xl4P_bNNeczQ4wRVMk1U-1">
          <mxGeometry width="50" height="50" relative="1" as="geometry">
            <mxPoint x="-40" y="-230" as="sourcePoint" />
            <mxPoint x="220" y="-240" as="targetPoint" />
            <Array as="points">
              <mxPoint x="200" y="-240" />
              <mxPoint x="200" y="-60" />
              <mxPoint x="100" y="-60" />
            </Array>
          </mxGeometry>
        </mxCell>
        <mxCell id="xl4P_bNNeczQ4wRVMk1U-47" value="" style="endArrow=classic;html=1;rounded=0;" edge="1" parent="1">
          <mxGeometry width="50" height="50" relative="1" as="geometry">
            <mxPoint x="70" y="-250" as="sourcePoint" />
            <mxPoint x="140" y="-230" as="targetPoint" />
          </mxGeometry>
        </mxCell>
        <mxCell id="xl4P_bNNeczQ4wRVMk1U-48" value="&lt;span style=&quot;text-wrap-mode: nowrap;&quot;&gt;2.1.5: display product&lt;/span&gt;" style="text;html=1;align=center;verticalAlign=middle;whiteSpace=wrap;rounded=0;" vertex="1" parent="1">
          <mxGeometry x="85" y="-280" width="60" height="30" as="geometry" />
        </mxCell>
        <mxCell id="xl4P_bNNeczQ4wRVMk1U-49" value="" style="endArrow=none;html=1;rounded=0;entryX=0;entryY=0.5;entryDx=0;entryDy=0;edgeStyle=orthogonalEdgeStyle;curved=1;exitX=0;exitY=0.25;exitDx=0;exitDy=0;" edge="1" parent="1" source="xl4P_bNNeczQ4wRVMk1U-26" target="xl4P_bNNeczQ4wRVMk1U-32">
          <mxGeometry width="50" height="50" relative="1" as="geometry">
            <mxPoint x="-240" y="40" as="sourcePoint" />
            <mxPoint x="-290" y="-20" as="targetPoint" />
            <Array as="points">
              <mxPoint x="-310" y="45" />
              <mxPoint x="-310" y="-240" />
            </Array>
          </mxGeometry>
        </mxCell>
        <mxCell id="xl4P_bNNeczQ4wRVMk1U-50" value="" style="endArrow=classic;html=1;rounded=0;" edge="1" parent="1">
          <mxGeometry width="50" height="50" relative="1" as="geometry">
            <mxPoint x="-320" y="-110" as="sourcePoint" />
            <mxPoint x="-320" y="-150" as="targetPoint" />
          </mxGeometry>
        </mxCell>
        <mxCell id="xl4P_bNNeczQ4wRVMk1U-51" value="&lt;span style=&quot;text-wrap-mode: nowrap;&quot;&gt;2.2.1: write name product&lt;/span&gt;" style="text;html=1;align=center;verticalAlign=middle;whiteSpace=wrap;rounded=0;" vertex="1" parent="1">
          <mxGeometry x="-450" y="-150" width="120" height="30" as="geometry" />
        </mxCell>
        <mxCell id="xl4P_bNNeczQ4wRVMk1U-52" value="" style="endArrow=none;html=1;rounded=0;exitX=1;exitY=0;exitDx=0;exitDy=0;edgeStyle=orthogonalEdgeStyle;curved=1;entryX=0.75;entryY=0;entryDx=0;entryDy=0;" edge="1" parent="1" source="xl4P_bNNeczQ4wRVMk1U-32" target="xl4P_bNNeczQ4wRVMk1U-1">
          <mxGeometry width="50" height="50" relative="1" as="geometry">
            <mxPoint x="-20" y="-320" as="sourcePoint" />
            <mxPoint x="30" y="-370" as="targetPoint" />
            <Array as="points">
              <mxPoint x="-100" y="-320" />
              <mxPoint x="240" y="-320" />
              <mxPoint x="240" y="-30" />
              <mxPoint x="130" y="-30" />
            </Array>
          </mxGeometry>
        </mxCell>
        <mxCell id="xl4P_bNNeczQ4wRVMk1U-53" value="" style="endArrow=classic;html=1;rounded=0;" edge="1" parent="1">
          <mxGeometry width="50" height="50" relative="1" as="geometry">
            <mxPoint x="10" y="-330" as="sourcePoint" />
            <mxPoint x="60" y="-330" as="targetPoint" />
          </mxGeometry>
        </mxCell>
        <mxCell id="xl4P_bNNeczQ4wRVMk1U-54" value="&lt;span style=&quot;text-wrap-mode: nowrap;&quot;&gt;2.2.2: display product&lt;/span&gt;" style="text;html=1;align=center;verticalAlign=middle;whiteSpace=wrap;rounded=0;" vertex="1" parent="1">
          <mxGeometry x="5" y="-370" width="60" height="30" as="geometry" />
        </mxCell>
        <mxCell id="xl4P_bNNeczQ4wRVMk1U-55" value="" style="rounded=0;whiteSpace=wrap;html=1;" vertex="1" parent="1">
          <mxGeometry x="-210" y="280" width="120" height="60" as="geometry" />
        </mxCell>
        <mxCell id="xl4P_bNNeczQ4wRVMk1U-56" value="System" style="text;html=1;align=center;verticalAlign=middle;whiteSpace=wrap;rounded=0;" vertex="1" parent="1">
          <mxGeometry x="-180" y="295" width="60" height="30" as="geometry" />
        </mxCell>
        <mxCell id="xl4P_bNNeczQ4wRVMk1U-57" value="" style="endArrow=none;html=1;rounded=0;entryX=0;entryY=0.75;entryDx=0;entryDy=0;exitX=0.25;exitY=0;exitDx=0;exitDy=0;" edge="1" parent="1" source="xl4P_bNNeczQ4wRVMk1U-55" target="xl4P_bNNeczQ4wRVMk1U-1">
          <mxGeometry width="50" height="50" relative="1" as="geometry">
            <mxPoint x="-40" y="180" as="sourcePoint" />
            <mxPoint x="10" y="130" as="targetPoint" />
          </mxGeometry>
        </mxCell>
        <mxCell id="xl4P_bNNeczQ4wRVMk1U-58" value="" style="endArrow=classic;html=1;rounded=0;" edge="1" parent="1">
          <mxGeometry width="50" height="50" relative="1" as="geometry">
            <mxPoint x="-70" y="150" as="sourcePoint" />
            <mxPoint x="-110" y="190" as="targetPoint" />
          </mxGeometry>
        </mxCell>
        <mxCell id="xl4P_bNNeczQ4wRVMk1U-59" value="&lt;span style=&quot;text-wrap-mode: nowrap;&quot;&gt;2.3.1: search by category(category name)&lt;/span&gt;" style="text;html=1;align=center;verticalAlign=middle;whiteSpace=wrap;rounded=0;" vertex="1" parent="1">
          <mxGeometry x="-300" y="150" width="200" height="30" as="geometry" />
        </mxCell>
        <mxCell id="xl4P_bNNeczQ4wRVMk1U-60" value="" style="endArrow=none;html=1;rounded=0;entryX=0.75;entryY=0;entryDx=0;entryDy=0;edgeStyle=orthogonalEdgeStyle;curved=1;exitX=1;exitY=0.25;exitDx=0;exitDy=0;" edge="1" parent="1" source="xl4P_bNNeczQ4wRVMk1U-55" target="xl4P_bNNeczQ4wRVMk1U-55">
          <mxGeometry width="50" height="50" relative="1" as="geometry">
            <mxPoint x="-10" y="270" as="sourcePoint" />
            <mxPoint x="-30" y="340" as="targetPoint" />
            <Array as="points">
              <mxPoint x="-40" y="295" />
              <mxPoint x="-40" y="240" />
              <mxPoint x="-120" y="240" />
            </Array>
          </mxGeometry>
        </mxCell>
        <mxCell id="xl4P_bNNeczQ4wRVMk1U-61" value="" style="endArrow=classic;html=1;rounded=0;" edge="1" parent="1">
          <mxGeometry width="50" height="50" relative="1" as="geometry">
            <mxPoint x="-45" y="230" as="sourcePoint" />
            <mxPoint x="-25" y="270" as="targetPoint" />
          </mxGeometry>
        </mxCell>
        <mxCell id="xl4P_bNNeczQ4wRVMk1U-62" value="&lt;span style=&quot;text-wrap-mode: nowrap;&quot;&gt;2.3.2: validate category exists&lt;/span&gt;" style="text;html=1;align=center;verticalAlign=middle;whiteSpace=wrap;rounded=0;" vertex="1" parent="1">
          <mxGeometry x="-10" y="230" width="130" height="30" as="geometry" />
        </mxCell>
        <mxCell id="xl4P_bNNeczQ4wRVMk1U-63" value="" style="endArrow=none;html=1;rounded=0;entryX=1;entryY=0.5;entryDx=0;entryDy=0;edgeStyle=orthogonalEdgeStyle;curved=1;exitX=0.75;exitY=1;exitDx=0;exitDy=0;" edge="1" parent="1" source="xl4P_bNNeczQ4wRVMk1U-55" target="xl4P_bNNeczQ4wRVMk1U-55">
          <mxGeometry width="50" height="50" relative="1" as="geometry">
            <mxPoint x="-50" y="400" as="sourcePoint" />
            <mxPoint x="-110" y="390" as="targetPoint" />
            <Array as="points">
              <mxPoint x="-120" y="370" />
              <mxPoint x="-40" y="370" />
              <mxPoint x="-40" y="310" />
            </Array>
          </mxGeometry>
        </mxCell>
        <mxCell id="xl4P_bNNeczQ4wRVMk1U-64" value="" style="endArrow=classic;html=1;rounded=0;" edge="1" parent="1">
          <mxGeometry width="50" height="50" relative="1" as="geometry">
            <mxPoint x="-40" y="310" as="sourcePoint" />
            <mxPoint x="-20" y="350" as="targetPoint" />
          </mxGeometry>
        </mxCell>
        <mxCell id="xl4P_bNNeczQ4wRVMk1U-65" value="&lt;span style=&quot;text-wrap-mode: nowrap;&quot;&gt;2.3.3: bring gifts&amp;nbsp;&lt;/span&gt;&lt;div style=&quot;text-wrap-mode: nowrap;&quot;&gt;under the category&lt;/div&gt;" style="text;html=1;align=center;verticalAlign=middle;whiteSpace=wrap;rounded=0;" vertex="1" parent="1">
          <mxGeometry x="-25" y="310" width="115" height="30" as="geometry" />
        </mxCell>
        <mxCell id="xl4P_bNNeczQ4wRVMk1U-66" value="" style="endArrow=none;html=1;rounded=0;exitX=0.5;exitY=0;exitDx=0;exitDy=0;entryX=0.25;entryY=1;entryDx=0;entryDy=0;" edge="1" parent="1" source="xl4P_bNNeczQ4wRVMk1U-55" target="xl4P_bNNeczQ4wRVMk1U-1">
          <mxGeometry width="50" height="50" relative="1" as="geometry">
            <mxPoint x="30" y="190" as="sourcePoint" />
            <mxPoint x="80" y="140" as="targetPoint" />
          </mxGeometry>
        </mxCell>
        <mxCell id="xl4P_bNNeczQ4wRVMk1U-67" value="" style="endArrow=classic;html=1;rounded=0;" edge="1" parent="1">
          <mxGeometry width="50" height="50" relative="1" as="geometry">
            <mxPoint x="10" y="170" as="sourcePoint" />
            <mxPoint x="40" y="140" as="targetPoint" />
          </mxGeometry>
        </mxCell>
        <mxCell id="xl4P_bNNeczQ4wRVMk1U-68" value="&lt;span style=&quot;text-wrap-mode: nowrap;&quot;&gt;2.3.4: return list of gift in the category&lt;/span&gt;" style="text;html=1;align=center;verticalAlign=middle;whiteSpace=wrap;rounded=0;" vertex="1" parent="1">
          <mxGeometry x="40" y="150" width="175" height="30" as="geometry" />
        </mxCell>
      </root>
    </mxGraphModel>
  </diagram>
</mxfile>
